# xmcd
#
# Track frame offsets:
#	150
#	15466
#	38156
#	54257
#	83221
#	99139
#	119422
#	132409
#	169179
#	193449
#	228904
#	252555
#
# Disc length: 4155 seconds
#
# Revision: 1
# Processed by: cddbd v1.5.2PL0 Copyright (c) Steve Scherf et al.
# Submitted via: EZCDAudioConverter 3.1.5.1
#
DISCID=9b10390c
DTITLE=Drive-By Truckers - It's Great to Be Alive
DYEAR=2015
DGENRE=Country
TTITLE0=Get Downtown
TTITLE1=Ronnie and Neil
TTITLE2=Gravity's Gone
TTITLE3=Pauline Hawkins
TTITLE4=Birthday Boy
TTITLE5=Girls Who Smoke
TTITLE6=Three Dimes Down
TTITLE7=Hell No, I Ain't Happy
TTITLE8=Shut Up and Get on the Plane
TTITLE9=Angels and Fuselage
TTITLE10=Zip City
TTITLE11=Grand Canyon
EXTD=
EXTT0=
EXTT1=
EXTT2=
EXTT3=
EXTT4=
EXTT5=
EXTT6=
EXTT7=
EXTT8=
EXTT9=
EXTT10=
EXTT11=
PLAYORDER=
